<?xml version="1.0" standalone="no"?>
<!DOCTYPE svg PUBLIC "-//W3C//DTD SVG 20010904//EN"
 "http://www.w3.org/TR/2001/REC-SVG-20010904/DTD/svg10.dtd">
<svg version="1.0" xmlns="http://www.w3.org/2000/svg"
 width="1024.000000pt" height="1024.000000pt" viewBox="0 0 1024.000000 1024.000000"
 preserveAspectRatio="xMidYMid meet">
<metadata>
Created by potrace 1.11, written by Peter Selinger 2001-2013
</metadata>
<g transform="translate(0.000000,1024.000000) scale(0.100000,-0.100000)"
fill="#000000" stroke="none">
<path d="M0 5120 l0 -5120 5120 0 5120 0 0 5120 0 5120 -5120 0 -5120 0 0
-5120z m1010 309 c102 -6 538 -15 970 -19 847 -8 871 -9 1095 -66 516 -131
821 -453 876 -924 20 -175 -5 -332 -75 -486 -129 -279 -380 -509 -676 -621
-47 -17 -85 -37 -85 -44 0 -8 43 -20 120 -35 446 -82 762 -249 955 -505 149
-198 206 -412 189 -705 -39 -634 -476 -1064 -1219 -1198 -163 -29 -356 -36
-1004 -36 -468 1 -759 -4 -1033 -17 -210 -9 -385 -14 -389 -10 -4 3 -9 37 -12
75 -8 113 9 129 175 166 236 53 327 96 365 175 l23 46 3 1839 c1 1223 -1 1858
-8 1895 -21 114 -93 162 -325 218 -83 19 -162 40 -177 45 -48 18 -68 91 -52
190 l6 37 47 -5 c25 -2 129 -9 231 -15z"/>
<path d="M1950 4235 l0 -888 198 6 c434 14 687 92 862 267 153 152 220 349
221 640 0 271 -61 445 -209 594 -170 171 -432 250 -869 263 l-203 6 0 -888z"/>
<path d="M1952 2173 c3 -874 3 -889 23 -923 81 -137 328 -192 710 -160 240 21
391 57 530 125 260 128 395 343 425 678 31 342 -58 630 -255 823 -81 80 -163
135 -289 195 -234 111 -463 149 -904 149 l-243 0 3 -887z"/>
</g>
</svg>
